# xmcd CD database file
#
# Track frame offsets:
#	182
#	28707
#	48675
#	72355
#	89510
#	109747
#	139165
#	153942
#	170502
#	193687
#	205232
#	218665
#	232962
#	265687
#
# Disc length: 3725 seconds
#
# Revision: 0
# Processed by: cddbd v1.5.2PL0 Copyright (c) Steve Scherf et al.
# Submitted via: CDex 1.40Beta8
#
DISCID=c70e8b0e
DTITLE=Various Artist - Best of Gene's Blues - Vol 1
DYEAR=1994
DGENRE=Blues
TTITLE0=Unchain My Heart - Professionals With Pat Scanga
TTITLE1=Little Pigs - Gary Belloma and The Blue Bombers
TTITLE2=Too Blue - Mystic Knights With Chismo Charles
TTITLE3=Money Box - Professionals With Andrea Pearl, Glen Pavone, and Donny Szech
TTITLE4=One Bad Stud - Professionals With Pat Scanga
TTITLE5=Out Of The Rain - Barbara Blue Blues Band
TTITLE6=Wreckin Ball - Professionals With Glen Pavone, and Donny Szech
TTITLE7=Spoonful - James King and The Usual Suspects
TTITLE8=Mercy Mercy - Professionals With Pat Scanga
TTITLE9=Heart Of Steel - Mystic Knights With Chismo Charles
TTITLE10=Old Man's Movin Out - Barbara Blue Blues Band
TTITLE11=If I Ever Needed Love - Barbara Blue Blues Band
TTITLE12=I Wish You Would - James King and The Usual Suspects
TTITLE13=Run Run Rudolph - Gary Belloma and The Blue Bombers
EXTD=YEAR: 1994 ID3G: 0
EXTT0=
EXTT1=
EXTT2=
EXTT3=
EXTT4=
EXTT5=
EXTT6=
EXTT7=
EXTT8=
EXTT9=
EXTT10=
EXTT11=
EXTT12=
EXTT13=
PLAYORDER=
